<svg height="308.6067" viewBox="0 0 42 40" width="324.037035" xmlns="http://www.w3.org/2000/svg"><g fill="#d4911e"><path d="m23.644641 22.0284685c.0684684-.2018018.1621621-.3963964.2886486-.5657658.1981982-.2774775.4140541-.5441441.627027-.8108108.0825225-.1081081.1618018-.2198198.2590991-.3135135.1513514-.1513514.5405406-.6234234.6270271-.8288289.0684684-.1585585.0936936-.3243243.1409009-.3387387.0356756-.0144144.1477477.0072072.1549549.1189189.0252252.3891892.0572973.6918919.0864865 1.0522523.0144144.1765766.0288288.3675675.0288288.5585585 0 .2450451-.0288288.4936937-.1336937.727928-.1837838.4036036-.6014414 1.0846847-.7387387 1.2828829-.1473874.1981981-.7063063.9909909-.8432433 1.2036036-.1369369.2126126-.5009009.8756756-.5618018.9909909-.0648648.1117118-.0255855.1117118-.1156756.1117118-.0864865 0-.0609009-.7135136-.0609009-.8396397 0-.8108108-.0291892-1.5747748.2410811-2.3495495"/><path d="m22.0645045 36.8248649c-.1873874-.1585586-.0544144-.5405406 0-1.0918919.0068469-.0576577.1581982-.6666667.2122523-.9297298.0436036-.1945946.1661261-.7603603.209009-.9477477.0255856-.1117117.1261261-.4504505.1441441-.5153153.018018-.0612613.0508108-.1981982.0864865-.2126126.0396396-.0108108.0396396-.0180181.0396396.0396396 0 .0540541.0327928.2630631.0183784.3927928-.0147748.1333333-.0327928.4288288-.0508108.572973-.0104504.0864865-.0104504.245045-.0072072.4108108 0 .1081081.0036036.2162162 0 .3099099-.0072072.2378378.0252252.6774775.227027 1.0342342 0 0 .0576577.0576577.0576577.1009009 0 .0468469-.0392793.0684685-.0828829.1513514-.0756757.1441441-.3203604.4468468-.4068468.5405405-.0900901.0936937-.2598199.2990991-.4468469.1441442"/><path d="m16.244617 22.0284685c.0684685-.2018018.1621622-.3963964.2886487-.5657658.1981982-.2774775.414054-.5441441.627027-.8108108.0825225-.1081081.1618018-.2198198.2590991-.3135135.1513514-.1513514.5405406-.6234234.627027-.8288289.0684685-.1585585.0936937-.3243243.1409009-.3387387.0356757-.0144144.1477478.0072072.154955.1189189.0252252.3891892.0572973.6918919.0864865 1.0522523.0144144.1765766.0288288.3675675.0288288.5585585 0 .2450451-.0288288.4936937-.1336937.727928-.1837838.4036036-.6014414 1.0846847-.7387387 1.2828829-.1473874.1981981-.7063063.9909909-.8432433 1.2036036-.1369369.2126126-.5009009.8756756-.5618018.9909909-.0648648.1117118-.0255856.1117118-.1156756.1117118-.0864865 0-.0609009-.7135136-.0609009-.8396397 0-.8108108-.0291892-1.5747748.241081-2.3495495" transform="matrix(-1 0 0 1 34.45759 0)"/><path d="m19.0645042 36.8248649c-.1873874-.1585586-.0544144-.5405406 0-1.0918919.0068469-.0576577.1581982-.6666667.2122523-.9297298.0436036-.1945946.1661261-.7603603.209009-.9477477.0255856-.1117117.1261261-.4504505.1441441-.5153153.018018-.0612613.0508108-.1981982.0864865-.2126126.0396396-.0108108.0396396-.0180181.0396396.0396396 0 .0540541.0327928.2630631.0183784.3927928-.0147748.1333333-.0327928.4288288-.0508108.572973-.0104504.0864865-.0104504.245045-.0072072.4108108 0 .1081081.0036036.2162162 0 .3099099-.0072072.2378378.0252252.6774775.227027 1.0342342 0 0 .0576577.0576577.0576577.1009009 0 .0468469-.0392793.0684685-.0828829.1513514-.0756757.1441441-.3203604.4468468-.4068468.5405405-.0900901.0936937-.2598199.2990991-.4468469.1441442" transform="matrix(-1 0 0 1 38.968844 0)"/><path d="m40.4114149 40h-17.4114149s.9359973-.7762014 1.0967204-.9336384c.1562481-.1537758.3165983-.3954234.402367-.6077804.0894977-.2123569.160723-.6370709.1864536-.8494279.0298326-.212357.1044141-.369794.1756393-.5528604.0708524-.1867277.402367-.6370709.4881357-.7505721.0894978-.1135011.56309-.6517162.663775-.7652174.100685-.1135011.100685-.2416476.0600381-.3258581-.0451218-.0842105.0294597-.1574371.1450609-.2855835.1159742-.1244851.6488587-.6919909.8804342-.9592677.2271005-.2709383.1152283-.3405035.0559361-.3697941-.0559361-.0292906-.4624051.2270023-.6641479.3258581-.1599773.0768879-.5519029.2819222-.7383565.3295195-.0779376.0219679-.1193303.0183066-.1417048-.0146453-.0182724-.032952-.4363015-.6077804-.6190261-1.7061785-.2013699-1.9514874.2013699-3.1121282.6790642-4.0933639.4735923-.973913.965457-1.6988558 1.2119487-2.0100686.2420169-.3112128 1.3831132-1.2741419 1.5695669-1.4022883.1901827-.1281465 2.3683343-1.5304348 2.6140802-1.7281465.2461188-.1977117-.0410198-.2782609-.1342467-.2379863-.2423897.1061785-.7271692.2965675-.9505407.3954234-.2576789.1098398-1.5442091.5528604-1.786226.6077803-.2464917.0549199-.21293.0512586-.1756393-.1977117.0298326-.1867277.3915527-1.006865.5634629-1.3034325.1752665-.3002288.9397264-1.3620137 1.4576947-1.8562929.5183411-.4942792 1.1265529-1.1350114 1.3573826-1.4864988.2315754-.3551488 1.182489-2.2810069 1.4692547-2.9876431.2912406-.7102974.7980217-1.6878718.8987066-1.8562929.1010579-.168421.2274735-.2562929.2129301-.3990846-.0149163-.1391305-.4292163.2123569-.619399.3844393-.2871386.2526316-.663775.7395881-1.1261801 1.431579-.458676.6956521-.965457 1.1459954-1.0549547 1.2302059-.0857687.0842106-.6563169.6553776-.7458146.7066362-.05258.0292906-.0749544.0073226-.0857687-.0402746-.0339346-.1391305 0-.4906179.0555632-.7652174.0708524-.3697941.0264764-1.2485126.156621-1.6878719.1305176-.4356979.1901828-.6480549.7946655-1.6988558.607466-1.0471396 1.2563247-2.8045767 1.7899551-5.5798627.5328845-2.77894737.301682-5.16979405.2722223-5.44073226-.0264764-.27093822-.1458068-.22700229-.2166592-.21235698-.0704794.0146453-.1156012.43935926-.1156012.43935926s.0298326 1.0215103-1.2376794 4.34965675c-1.2719868 3.32814643-2.7710741 3.55514873-2.9012188 3.58443933-.1308904.0256293-.1864536.010984-.1864536-.0585812s.357991-1.50114417.2271005-2.61784897c-.1267885-1.12036614-.402367-1.57437071-.5593609-1.73180778-.1193304-.11716247-.1193304-.02562929-.1152284.32585812 0 .11716247.0033562.26361556 0 .43935927-.0149163.71029748-.4776943 1.65858123-.4776943 1.65858123s-.200997.83478261-.5478008-1.10572082c-.5075268-3.25858124-.0298326-4.99405034.1003121-5.4590389.1305175-.46864989.5463092-2.13089245 1.6497419-2.13089245h11.3762831c.8759592 0 1.5885851.6993135 1.5885851 1.5597254v36.8622426c0 .8640732-.7126259 1.578032-1.5885851 1.578032z"/><path d="m17.4114149 40h-17.4114149s.93599733-.7762014 1.09672038-.9336384c.15624816-.1537758.3165983-.3954234.40236698-.6077804.08949775-.2123569.16072305-.6370709.18645365-.8494279.02983258-.212357.10441404-.369794.17563934-.5528604.07085239-.1867277.40236698-.6370709.48813566-.7505721.08949775-.1135011.56309003-.6517162.663775-.7652174.10068497-.1135011.10068497-.2416476.06003807-.3258581-.04512178-.0842105.02945968-.1574371.14506095-.2855835.11597417-.1244851.6488587-.6919909.88043414-.9592677.22710055-.2709383.11522835-.3405035.05593609-.3697941-.05593609-.0292906-.46240505.2270023-.6641479.3258581-.15997724.0768879-.55190281.2819222-.73835646.3295195-.07793763.0219679-.11933034.0183066-.14170478-.0146453-.01827246-.032952-.43630154-.6077804-.61902612-1.7061785-.20136995-1.9514874.20136994-3.1121282.6790642-4.0933639.47359227-.973913.96545701-1.6988558 1.21194873-2.0100686.24201684-.3112128 1.38311319-1.2741419 1.56956684-1.4022883.19018273-.1281465 2.36833428-1.5304348 2.6140802-1.7281465.24611882-.1977117-.04101981-.2782609-.13424663-.2379863-.24238975.1061785-.72716924.2965675-.95054072.3954234-.25767895.1098398-1.54420914.5528604-1.78622598.6077803-.24649173.0549199-.21293007.0512586-.17563934-.1977117.02983258-.1867277.39155267-1.006865.56346293-1.3034325.17526644-.3002288.93972641-1.3620137 1.45769465-1.8562929.51834115-.4942792 1.12655297-1.1350114 1.35738259-1.4864988.23157543-.3551488 1.18248905-2.2810069 1.46925477-2.9876431.29124056-.7102974.79802166-1.6878718.89870656-1.8562929.1010579-.168421.2274735-.2562929.2129301-.3990846-.0149163-.1391305-.4292163.2123569-.619399.3844393-.2871386.2526316-.66377502.7395881-1.12618008 1.431579-.45867598.6956521-.965457 1.1459954-1.05495476 1.2302059-.08576868.0842106-.65631685.6553776-.7458146.7066362-.05257993.0292906-.07495437.0073226-.08576868-.0402746-.03393457-.1391305 0-.4906179.05556319-.7652174.07085238-.3697941.02647641-1.2485126.15662106-1.6878719.13051756-.4356979.19018273-.6480549.79466547-1.6988558.60746599-1.0471396 1.2563247-2.8045767 1.7899551-5.5798627.5328845-2.77894737.301682-5.16979405.2722223-5.44073226-.0264764-.27093822-.1458068-.22700229-.2166592-.21235698-.0704794.0146453-.1156012.43935926-.1156012.43935926s.0298326 1.0215103-1.23767936 4.34965675c-1.27198681 3.32814643-2.77107417 3.55514873-2.90121882 3.58443933-.13089046.0256293-.18645365.010984-.18645365-.0585812s.35799101-1.50114417.22710054-2.61784897c-.12678848-1.12036614-.40236698-1.57437071-.55936095-1.73180778-.11933034-.11716247-.11933034-.02562929-.11522836.32585812 0 .11716247.00335617.26361556 0 .43935927-.01491629.71029748-.47769425 1.65858123-.47769425 1.65858123s-.20099704.83478261-.54780083-1.10572082c-.50752684-3.25858124-.02983258-4.99405034.10031206-5.4590389.13051756-.46864989.5463092-2.13089245 1.64974191-2.13089245h11.37628311c.8759592 0 1.5885851.6993135 1.5885851 1.5597254v36.8622426c0 .8640732-.7126259 1.578032-1.5885851 1.578032z" transform="matrix(-1 0 0 1 19 0)"/></g></svg>